<svg xmlns="http://www.w3.org/2000/svg" width="176" height="197" viewBox="0 0 176 197" fill="none"><path d="m31.484 58.25 116.702 32.966c3.166.894 5.05 4.33 4.201 7.67l-20.54 80.814c-.848 3.337-4.107 5.324-7.276 4.429L13.608 152.784c-3.166-.894-5.05-4.331-4.201-7.671l22.077-86.86zm-5.472 21.518 122.44 34.587M45.815 85.36l18.08-17.943m4.9 24.436 18.08-17.944m4.909 24.438 18.08-17.944m4.908 24.437 18.08-17.945" stroke="#4570b6" stroke-width="2" stroke-miterlimit="10"/><path d="M40.124 75.323c1.393.394 2.825-.478 3.199-1.947.373-1.468-.454-2.978-1.847-3.372s-2.825.478-3.199 1.947.454 2.979 1.847 3.372Zm69.231 65.925s-18.522 13.81-35.799 8.93c-17.276-4.88-26.767-26.603-26.767-26.603s18.522-13.81 35.799-8.93c17.276 4.881 26.767 26.603 26.767 26.603Z" stroke="#4570b6" stroke-width="2" stroke-miterlimit="10"/><path d="M74.721 146.289c7.153 2.021 14.504-2.454 16.42-9.994s-2.327-15.291-9.48-17.311c-7.152-2.021-14.504 2.454-16.42 9.994s2.328 15.291 9.48 17.311Zm-11.283-18.011 29.937 8.457m-10.957-20.009-8.022 31.561m-10.958-20.009 29.937 8.457m-10.957-20.009-8.022 31.561M36.739 35.66l114.816-4.079c3.275-.116 6.027 2.593 6.138 6.05l.331 10.38c.105 3.268-2.33 6.014-5.431 6.124L31.526 58.437l-.521-16.305c-.11-3.453 2.459-6.354 5.737-6.47zm15.254 21.752 12.343-22.72m11.443 21.875L88.12 33.851m11.444 21.875 12.339-22.717m11.446 21.871 12.342-22.715" stroke="#4570b6" stroke-width="2" stroke-miterlimit="10"/><path d="M43.019 49.463c1.393.394 2.825-.478 3.198-1.947.374-1.468-.453-2.978-1.846-3.372s-2.826.478-3.2 1.947c-.373 1.469.454 2.979 1.848 3.372Z" stroke="#4570b6" stroke-width="2" stroke-miterlimit="10"/><path d="M2.922 78.24h173v118h-173z" fill="url(#a)"/><defs><linearGradient id="a" x1="89.296" y1="57.089" x2="62.868" y2="159.245" gradientUnits="userSpaceOnUse"><stop offset=".415" stop-color="#fff" stop-opacity="0"/><stop offset="1" stop-color="#fff"/></linearGradient></defs></svg>